<?xml version="1.0" standalone="no"?>
<!DOCTYPE svg PUBLIC "-//W3C//DTD SVG 20010904//EN"
 "http://www.w3.org/TR/2001/REC-SVG-20010904/DTD/svg10.dtd">
<svg version="1.0" xmlns="http://www.w3.org/2000/svg"
 width="1080.000000pt" height="1080.000000pt" viewBox="0 0 1080.000000 1080.000000"
 preserveAspectRatio="xMidYMid meet">
<metadata>
Created by potrace 1.11, written by Peter Selinger 2001-2013
</metadata>
<g transform="translate(0.000000,1080.000000) scale(0.100000,-0.100000)"
fill="#000000" stroke="none">
<path d="M6453 10769 c-58 -10 -157 -44 -176 -62 -6 -7 -24 -18 -39 -26 -74
-38 -182 -166 -258 -306 -18 -33 -38 -66 -44 -74 -6 -8 -10 -17 -10 -20 2 -10
-30 -76 -38 -79 -5 -2 -8 -8 -8 -13 0 -5 -26 -64 -59 -132 -103 -215 -198
-434 -265 -613 l-26 -71 -155 3 c-85 2 -159 5 -164 9 -5 3 -12 1 -15 -4 -4 -6
-18 -6 -35 -1 -16 4 -32 6 -34 4 -3 -3 -68 -6 -145 -8 -76 -2 -144 -6 -151
-10 -6 -4 -11 -1 -11 6 0 8 -3 9 -8 3 -4 -6 -32 -11 -62 -12 -69 -2 -233 -16
-310 -28 -14 -2 -50 -7 -80 -10 -30 -4 -64 -9 -75 -11 -11 -2 -56 -11 -100
-19 -69 -13 -175 -34 -240 -49 -110 -24 -448 -129 -520 -162 -16 -7 -66 -27
-110 -44 -44 -17 -89 -35 -100 -40 -61 -27 -119 -50 -128 -50 -6 0 -18 -6 -26
-14 -9 -8 -23 -16 -31 -18 -17 -4 -296 -144 -355 -179 -22 -13 -43 -28 -47
-34 -4 -5 -8 -7 -8 -2 0 9 -346 -223 -383 -257 -15 -14 -27 -23 -27 -20 0 3
-6 -1 -13 -8 -8 -7 -35 -31 -62 -53 -26 -22 -69 -58 -94 -80 -60 -52 -276
-268 -321 -321 -19 -23 -53 -63 -75 -89 -22 -26 -48 -55 -57 -64 -10 -8 -18
-20 -18 -26 0 -5 -15 -27 -33 -47 -17 -20 -41 -50 -52 -65 -47 -65 -175 -255
-175 -260 0 -3 -8 -17 -19 -31 -10 -15 -33 -54 -51 -87 -18 -33 -42 -76 -53
-95 -44 -77 -77 -143 -77 -153 0 -6 -7 -18 -16 -28 -8 -9 -17 -23 -18 -31 -3
-14 -13 -36 -71 -163 -20 -44 -36 -80 -35 -80 2 0 -8 -27 -45 -125 -18 -47
-47 -130 -65 -185 -18 -55 -35 -107 -38 -115 -3 -8 -4 -21 -3 -27 1 -7 -2 -13
-6 -13 -5 0 -9 -8 -10 -17 0 -10 -19 -90 -42 -178 -23 -88 -43 -177 -44 -197
-1 -21 -6 -38 -10 -38 -5 0 -7 -8 -6 -17 1 -10 -1 -29 -4 -43 -9 -32 -17 -77
-22 -115 -4 -31 -6 -47 -24 -170 -33 -233 -44 -424 -44 -790 0 -281 3 -367 19
-505 3 -25 7 -63 9 -85 2 -22 6 -56 9 -75 3 -19 8 -62 10 -95 3 -33 6 -60 6
-60 1 0 3 -11 4 -25 5 -45 16 -124 21 -150 2 -14 9 -47 15 -75 5 -27 12 -66
16 -85 7 -44 12 -65 14 -65 2 0 6 -17 14 -60 3 -16 10 -45 15 -63 5 -18 10
-36 11 -40 0 -4 5 -25 11 -47 6 -22 13 -51 16 -64 2 -13 9 -34 15 -45 6 -12
11 -23 10 -26 -3 -8 58 -206 78 -255 5 -11 20 -51 34 -90 13 -38 30 -83 37
-100 7 -16 13 -32 14 -35 2 -6 15 -36 78 -175 57 -128 147 -302 182 -353 14
-20 25 -42 25 -48 0 -7 4 -14 8 -16 5 -1 37 -45 72 -97 56 -84 205 -286 234
-318 6 -6 27 -30 46 -54 65 -80 115 -133 240 -259 163 -163 232 -225 385 -345
21 -16 43 -34 49 -40 45 -42 353 -241 496 -322 111 -62 290 -152 390 -195 19
-9 57 -26 84 -38 28 -12 57 -23 67 -25 9 -2 30 -10 46 -18 32 -17 379 -135
408 -140 11 -1 25 -6 31 -9 6 -4 22 -9 37 -12 45 -10 69 -15 132 -31 67 -17
91 -23 120 -29 164 -35 227 -46 235 -41 5 3 11 1 15 -4 3 -5 13 -10 23 -10 9
0 33 -2 52 -6 19 -3 53 -8 75 -10 22 -2 40 -5 40 -6 0 0 18 -3 40 -5 22 -2 56
-6 75 -9 36 -5 94 -10 260 -22 194 -15 796 -8 980 11 19 2 71 7 115 11 127 11
150 14 150 16 0 1 14 3 30 4 17 2 30 4 30 5 0 1 22 3 49 6 27 2 60 7 75 10 14
3 35 7 46 9 11 1 38 6 60 9 37 6 309 62 348 72 25 6 60 15 77 19 8 2 16 4 18
5 1 2 5 3 10 4 116 28 162 41 162 48 0 5 5 6 10 3 6 -3 16 -3 23 2 6 4 17 8
24 9 20 3 146 45 168 55 12 6 30 12 40 14 11 2 21 4 23 5 1 2 5 3 10 4 4 2 18
7 32 13 14 6 52 21 85 34 33 12 79 30 102 41 43 18 93 40 103 43 22 8 46 20
50 26 3 4 14 9 25 11 11 1 22 5 25 8 3 3 55 30 115 60 61 30 112 58 113 63 2
4 8 5 13 1 5 -3 9 0 9 5 0 6 4 11 9 11 5 0 48 24 96 53 47 28 93 57 103 62 69
40 304 212 310 228 2 4 8 7 13 7 6 0 20 10 33 23 13 12 42 38 66 57 23 19 59
51 80 70 21 20 57 51 81 70 98 80 368 360 433 449 17 23 33 41 38 41 4 0 8 6
8 13 0 6 14 25 30 41 17 16 30 34 30 40 0 5 9 19 19 30 24 27 147 213 192 291
19 33 39 69 46 80 7 11 17 32 24 48 6 15 15 27 20 27 5 0 8 3 7 8 -2 10 35 85
47 94 6 4 7 8 3 8 -4 0 8 28 26 63 67 126 227 559 251 676 2 9 13 52 25 96 30
113 74 322 85 402 4 25 14 91 22 138 2 17 6 42 8 58 2 15 7 32 10 37 3 6 1 10
-5 10 -6 0 -9 4 -6 9 8 13 24 131 33 246 10 129 10 808 0 900 -4 39 -10 88
-13 109 -2 22 -7 65 -10 95 -3 31 -7 72 -9 91 -3 19 -7 60 -10 90 -3 30 -8 73
-11 95 -2 22 -5 47 -6 55 0 8 -9 53 -19 100 -28 133 -25 120 -58 260 -20 84
-51 190 -60 208 -6 11 -8 21 -6 24 6 5 -61 205 -121 363 -4 11 -8 23 -9 28 -2
4 -4 10 -5 15 -1 4 -2 10 -1 15 0 4 -4 7 -9 7 -6 0 -10 8 -10 18 0 10 -7 27
-15 38 -8 10 -15 25 -15 32 0 13 -109 250 -129 282 -6 8 -24 42 -42 75 -60
113 -143 250 -217 360 -68 100 -178 253 -192 265 -3 3 -25 30 -50 60 -62 75
-93 111 -176 197 -38 40 -68 76 -65 78 2 3 0 5 -5 5 -5 0 -48 37 -96 83 -47
45 -94 89 -105 97 -10 8 -65 53 -123 100 -58 47 -123 99 -145 115 -22 16 -42
32 -45 35 -5 5 -42 31 -81 55 -9 5 -51 34 -92 63 -42 28 -81 52 -87 52 -5 0
-10 3 -10 8 0 7 -10 13 -66 42 -16 8 -31 17 -34 20 -7 9 -114 67 -260 142
-153 79 -405 191 -560 247 -63 24 -124 47 -135 52 -11 5 -40 13 -65 19 -25 6
-52 13 -60 15 -57 16 -137 38 -150 40 -16 2 -20 22 -9 45 4 8 9 29 12 45 11
57 18 90 23 107 3 10 7 28 10 40 2 13 6 34 9 48 25 110 52 238 59 275 2 17 7
39 9 50 3 11 11 54 18 95 14 80 15 89 18 93 1 1 4 16 6 32 3 30 12 97 20 145
36 217 6 343 -109 455 -111 109 -281 167 -423 144z m-1225 -2346 c2 -7 -1 -13
-7 -13 -6 0 -11 -10 -11 -23 0 -13 -3 -27 -7 -31 -4 -3 -8 -14 -9 -24 -2 -9
-10 -39 -18 -67 -8 -27 -24 -84 -36 -125 -12 -41 -26 -86 -31 -100 -7 -20 -22
-71 -43 -155 -2 -5 -6 -17 -9 -25 -3 -8 -16 -51 -28 -95 -11 -44 -24 -84 -27
-90 -4 -5 -7 -14 -8 -20 -5 -28 -15 -66 -33 -125 -11 -36 -32 -105 -47 -155
-14 -49 -27 -96 -27 -102 0 -7 -5 -13 -10 -13 -6 0 -8 -3 -5 -6 4 -3 2 -18 -2
-32 -12 -38 -69 -227 -86 -287 -21 -71 -20 -69 -27 -85 -5 -13 -25 -83 -33
-115 -2 -11 -66 -221 -88 -295 -12 -38 -37 -123 -41 -140 0 -3 -9 -32 -20 -65
-10 -33 -19 -64 -21 -70 -1 -5 -19 -66 -39 -135 -21 -69 -38 -129 -40 -135 -1
-5 -5 -17 -8 -25 -7 -18 -28 -96 -34 -129 -2 -13 -8 -31 -12 -40 -5 -9 -9 -19
-9 -24 0 -4 -12 -56 -26 -115 -25 -105 -35 -152 -40 -182 -2 -8 -8 -40 -14
-70 -15 -74 -22 -109 -27 -145 -2 -16 -8 -48 -12 -70 -4 -22 -7 -47 -8 -55 0
-8 -3 -19 -6 -25 -7 -11 -3 -291 5 -347 3 -21 10 -47 16 -58 6 -11 9 -20 6
-20 -8 0 29 -102 59 -160 77 -153 183 -274 325 -372 25 -18 47 -34 50 -37 3
-4 37 -22 75 -41 39 -19 72 -38 73 -42 2 -5 8 -8 13 -8 9 0 86 -32 121 -51 32
-16 242 -88 278 -95 8 -1 33 -7 55 -13 22 -6 56 -14 75 -17 19 -3 38 -8 41
-10 9 -5 109 -18 147 -19 17 0 32 -3 32 -6 0 -9 114 -13 330 -13 215 0 279 4
286 16 3 5 9 6 14 3 20 -13 366 81 399 109 8 6 15 10 15 8 4 -12 205 81 312
144 181 106 327 286 338 417 10 122 -73 226 -203 252 -85 18 -675 36 -816 25
-11 -1 -28 0 -38 2 -10 3 -40 1 -67 -2 -28 -4 -50 -4 -50 0 0 3 -22 7 -48 7
-55 2 -162 27 -207 50 -37 19 -91 76 -110 117 -45 96 -41 286 10 511 9 39 18
78 21 88 2 9 6 26 9 38 2 11 7 29 10 39 3 10 8 27 10 37 2 10 14 52 25 93 11
41 23 84 25 95 2 11 10 44 18 73 9 28 13 52 10 52 -3 0 -1 6 5 13 5 6 13 26
16 42 3 17 19 82 36 145 17 63 32 127 34 142 3 14 9 34 14 45 6 10 10 21 10
26 0 7 6 33 17 82 2 11 9 38 15 60 6 22 13 49 15 60 3 11 14 56 25 100 12 44
23 87 25 95 1 8 8 35 15 60 7 25 14 53 16 62 2 10 7 28 10 41 3 12 7 29 9 37
2 8 4 16 5 18 2 1 3 10 4 20 1 9 5 27 9 39 4 12 10 30 12 40 2 10 24 99 50
198 25 99 47 189 49 200 1 12 5 25 8 30 6 10 34 121 42 165 2 14 5 25 7 25 1
0 3 9 5 20 5 32 34 148 41 165 8 19 7 15 23 85 17 74 14 64 40 160 12 44 24
96 27 115 3 19 8 37 12 40 4 3 8 18 9 35 3 39 14 48 43 36 13 -5 71 -23 129
-41 58 -17 122 -38 143 -46 20 -7 37 -12 37 -9 0 3 13 -1 30 -10 16 -8 31 -15
32 -15 7 3 41 -10 173 -65 50 -20 96 -37 103 -38 6 0 12 -5 12 -10 0 -6 2 -8
5 -5 7 6 290 -136 329 -165 6 -4 45 -29 86 -54 71 -44 272 -191 315 -230 11
-10 43 -36 70 -58 59 -47 285 -273 334 -335 19 -23 40 -48 45 -54 52 -57 260
-363 272 -399 4 -12 10 -24 14 -27 11 -7 127 -252 152 -320 12 -30 24 -60 29
-66 5 -6 10 -19 12 -30 2 -10 7 -26 10 -34 44 -107 138 -432 152 -524 2 -12 6
-32 9 -46 5 -23 16 -81 30 -165 3 -16 18 -100 35 -185 16 -85 32 -175 35 -200
2 -25 5 -45 6 -45 1 0 3 -18 5 -40 2 -22 7 -65 11 -95 11 -91 6 -775 -6 -775
0 0 -3 -20 -5 -45 -7 -82 -15 -145 -19 -166 -2 -12 -7 -45 -11 -75 -9 -72 -51
-276 -76 -367 -11 -40 -22 -81 -24 -90 -4 -24 -80 -239 -99 -283 -8 -20 -12
-39 -9 -43 4 -3 1 -6 -5 -6 -7 0 -12 -5 -12 -12 0 -6 -13 -39 -29 -72 -16 -34
-51 -108 -76 -166 -65 -145 -138 -284 -177 -339 -10 -13 -15 -27 -12 -32 3 -5
0 -9 -6 -9 -6 0 -14 -8 -17 -17 -9 -23 -62 -100 -131 -188 -4 -5 -19 -25 -32
-44 -14 -19 -32 -42 -40 -51 -8 -9 -35 -40 -60 -69 -58 -67 -242 -249 -300
-297 -25 -20 -47 -39 -50 -43 -8 -10 -189 -144 -240 -177 -25 -16 -47 -31 -50
-35 -3 -3 -27 -19 -55 -34 -27 -16 -51 -33 -53 -37 -2 -4 -7 -8 -12 -8 -5 0
-50 -24 -102 -52 -51 -29 -118 -64 -148 -78 -30 -14 -57 -27 -60 -30 -8 -9
-134 -60 -147 -60 -7 0 -13 -4 -13 -8 0 -5 -15 -14 -32 -20 -140 -47 -177 -61
-195 -70 -11 -6 -31 -13 -44 -16 -13 -3 -67 -19 -119 -36 -52 -18 -106 -34
-120 -37 -41 -8 -43 -9 -100 -26 -30 -9 -71 -19 -90 -22 -19 -3 -51 -10 -70
-15 -51 -13 -166 -32 -197 -33 -7 0 -13 -3 -13 -7 0 -6 -20 -8 -112 -13 -21
-1 -38 -4 -38 -7 0 -3 -12 -6 -27 -6 -16 -1 -55 -5 -88 -8 -312 -35 -844 -40
-1095 -11 -14 2 -54 6 -89 10 -119 13 -136 15 -166 21 -16 3 -41 6 -55 8 -14
1 -38 6 -55 9 -16 4 -43 9 -60 12 -75 12 -141 26 -280 61 -83 20 -156 37 -162
37 -7 0 -13 4 -13 9 0 4 -6 8 -14 8 -7 0 -33 9 -57 19 -24 11 -46 20 -49 20
-9 0 -160 70 -265 122 -131 65 -331 178 -355 201 -11 10 -22 18 -25 18 -9 0
-90 56 -109 76 -9 8 -16 13 -16 9 0 -4 -7 1 -17 10 -9 9 -41 35 -72 58 -31 23
-58 44 -61 47 -3 4 -34 30 -70 59 -114 95 -270 246 -270 263 0 5 -5 6 -10 3
-5 -3 -10 -2 -10 3 0 6 -20 31 -45 56 -25 26 -45 50 -45 54 0 4 -16 24 -35 45
-19 21 -35 42 -35 48 0 5 -4 9 -8 9 -4 0 -16 13 -25 30 -10 16 -23 35 -30 42
-22 24 -77 108 -77 118 0 6 -5 10 -11 10 -5 0 -8 4 -5 9 4 5 2 11 -2 13 -30
11 -202 352 -270 533 -41 109 -45 119 -47 128 -2 4 -4 10 -5 15 -1 4 -2 10 -1
15 0 4 -3 7 -7 7 -4 0 -8 9 -9 19 -1 11 -8 39 -16 63 -17 49 -63 219 -72 261
-3 15 -7 38 -10 52 -3 14 -7 35 -9 48 -3 12 -8 33 -11 47 -3 14 -8 39 -10 55
-4 30 -9 61 -19 120 -3 17 -8 53 -11 80 -3 28 -10 75 -15 105 -14 87 -18 119
-25 204 -4 44 -9 89 -11 100 -30 157 -36 711 -10 906 2 14 7 54 11 90 4 36 9
74 11 85 2 11 7 40 10 65 3 25 8 54 10 65 8 35 24 119 29 145 14 80 61 258 98
370 12 36 22 68 23 73 1 4 2 8 4 10 1 1 3 9 5 17 5 22 73 199 95 247 11 24 20
45 20 48 0 19 158 324 206 397 13 21 24 40 24 42 0 5 80 127 90 136 3 3 17 23
32 45 15 22 38 52 50 67 13 15 34 41 48 59 86 112 411 436 530 529 17 14 44
35 58 48 41 35 298 204 372 245 106 58 328 167 370 182 3 1 13 5 23 8 9 4 25
10 35 14 9 3 19 7 22 8 3 1 12 5 20 8 33 14 246 80 265 82 11 1 20 3 20 4 0 2
7 4 15 6 8 2 25 6 38 9 46 12 60 15 182 40 69 14 144 28 167 31 23 3 57 8 75
11 156 22 280 33 422 39 60 2 110 6 112 8 9 8 98 -9 102 -20z"/>
</g>
</svg>
